# xmcd CD database file
#
# Track frame offsets:
#	150
#	14395
#	28562
#	44725
#	59502
#	88415
#	106770
#	130557
#	148435
#	176845
#	193070
#	218742
#	237167
#	244167
#
# Disc length: 3459 seconds
#
# Revision: 1
# Processed by: cddbd v1.5.1PL0 Copyright (c) Steve Scherf et al.
# Submitted via: CDex 1.51
#
DISCID=d00d810e
DTITLE=憂歌団 - 生聞59分
DYEAR=1900
DGENRE=Blues
TTITLE0=マディ・ジャンプス・ワン
TTITLE1=イフ・アイ・ディドゥント・ラヴ・ユー
TTITLE2=俺の村では俺も人気者
TTITLE3=10$の恋
TTITLE4=シカゴ・バウンド
TTITLE5=パチンコ〜ランランブルース
TTITLE6=スティ・ウィズ・ユー・フォーエバー
TTITLE7=ローリン・アンド・タンブリン
TTITLE8=イン・ジ・イブニング
TTITLE9=おそうじオバチャン
TTITLE10=ひとり暮し
TTITLE11=嫌んなった
TTITLE12=いこま
TTITLE13=憂歌団のテーマ
EXTD=
EXTT0=
EXTT1=
EXTT2=
EXTT3=
EXTT4=
EXTT5=
EXTT6=
EXTT7=
EXTT8=
EXTT9=
EXTT10=
EXTT11=
EXTT12=
EXTT13=
PLAYORDER=
